<svg xmlns="http://www.w3.org/2000/svg" width="35" height="30" viewBox="0 0 35 30" fill="none"><path d="M34.9209 16.3106C34.9766 17.6397 34.5027 18.9366 33.6033 19.9168C32.7039 20.8969 31.4525 21.4804 30.1235 21.539C30.0458 21.5426 29.9682 21.5444 29.8908 21.5444C29.5377 21.5442 29.1856 21.506 28.8407 21.4304C27.8172 23.0107 26.4751 24.3599 24.9003 25.3918C23.3256 26.4237 21.5528 27.1156 19.6953 27.4232C19.4756 28.0686 19.0373 28.617 18.4562 28.9735C17.8751 29.3301 17.1876 29.4724 16.5127 29.3758C15.8378 29.2793 15.2178 28.95 14.7599 28.4448C14.302 27.9396 14.0351 27.2904 14.0051 26.6092C13.9752 25.9281 14.1841 25.2579 14.5959 24.7145C15.0077 24.1711 15.5964 23.7887 16.2602 23.6333C16.9241 23.4779 17.6214 23.5593 18.2315 23.8635C18.8417 24.1676 19.3265 24.6754 19.6019 25.2991C22.217 24.8155 24.5794 23.4295 26.2774 21.3828C27.9755 19.3361 28.9015 16.7585 28.8941 14.0991C28.8941 7.81632 23.7827 2.70496 17.4999 2.70496C11.2172 2.70496 6.1058 7.81632 6.1058 14.0991C6.10546 16.0418 6.60197 17.9524 7.54813 19.6491C7.58019 19.7051 7.60426 19.7653 7.61963 19.828C7.71102 20.082 7.70125 20.3615 7.59235 20.6085C7.48344 20.8555 7.28374 21.0512 7.03456 21.155C6.42443 21.4118 5.76912 21.544 5.10716 21.5439C5.02925 21.5439 4.95118 21.5421 4.87295 21.5385C3.54452 21.4791 2.29385 20.8954 1.39518 19.9153C0.496508 18.9351 0.0231749 17.6387 0.0789694 16.3101C0.101399 15.7803 0.0888835 15.3076 0.0766491 14.8505C0.0652585 14.4201 0.0533757 13.975 0.0729226 13.5106C0.131259 12.2134 0.689277 10.989 1.6301 10.094C2.57093 9.19898 3.82157 8.70272 5.12009 8.70915C7.20528 3.93831 11.9692 0.595581 17.4999 0.595581C23.0307 0.595581 27.7947 3.93831 29.8799 8.70922C31.1785 8.70182 32.4296 9.19765 33.3706 10.0927C34.3115 10.9877 34.8693 12.2124 34.9269 13.5098C34.9465 13.9749 34.9347 14.4199 34.9232 14.8503C34.9111 15.3075 34.8985 15.7804 34.9209 16.3106ZM26.3456 14.0991C26.3451 15.4543 26.0333 16.7912 25.4344 18.0068C24.8354 19.2224 23.9653 20.2843 22.8911 21.1104C21.8168 21.9365 20.5672 22.5049 19.2386 22.7717C17.9099 23.0385 16.5377 22.9965 15.2279 22.6491L11.6475 24.7168C11.4668 24.8211 11.2593 24.8695 11.0511 24.8559C10.843 24.8422 10.6435 24.7672 10.478 24.6402C10.3125 24.5132 10.1884 24.34 10.1213 24.1424C10.0543 23.9449 10.0473 23.7319 10.1013 23.5304L11.0164 20.1169C9.50099 18.4789 8.65782 16.3305 8.65463 14.0991C8.65463 9.22025 12.6224 5.25139 17.4999 5.25139C22.3775 5.25139 26.3456 9.22025 26.3456 14.0991ZM15.0408 14.0991C15.0408 13.8194 14.9296 13.5511 14.7319 13.3533C14.5341 13.1555 14.2658 13.0444 13.9861 13.0444H13.9843C13.7758 13.0448 13.5721 13.107 13.3989 13.2231C13.2257 13.3392 13.0908 13.5041 13.0113 13.6968C12.9318 13.8896 12.9112 14.1016 12.9521 14.3061C12.993 14.5105 13.0936 14.6983 13.2412 14.8456C13.3888 14.9929 13.5767 15.0931 13.7813 15.1337C13.9858 15.1742 14.1978 15.1532 14.3904 15.0733C14.583 14.9934 14.7476 14.8582 14.8634 14.6848C14.9792 14.5114 15.041 14.3076 15.041 14.0991H15.0408ZM18.5548 14.0991C18.5548 14.0646 18.5529 14.0301 18.5492 13.9957C18.5459 13.9613 18.5408 13.927 18.5338 13.8931C18.5275 13.8593 18.519 13.8259 18.5084 13.7932C18.4987 13.7602 18.4867 13.7278 18.4741 13.6955C18.4614 13.6632 18.4459 13.6329 18.4298 13.6027C18.4137 13.5723 18.3961 13.5427 18.377 13.5141C18.3578 13.4852 18.3371 13.4573 18.3151 13.4304C18.2934 13.4035 18.2702 13.378 18.2455 13.3538C18.2216 13.3292 18.1956 13.306 18.1689 13.2835C18.1421 13.2624 18.114 13.2413 18.0852 13.2223C18.0566 13.2032 18.027 13.1856 17.9966 13.1696C17.9663 13.1534 17.9348 13.1386 17.903 13.1253C17.8714 13.112 17.839 13.1005 17.8061 13.0908C17.7403 13.0697 17.6724 13.056 17.6036 13.05C17.5003 13.0401 17.3961 13.0451 17.2942 13.0648C17.2603 13.0717 17.2268 13.0804 17.1937 13.0908C17.1608 13.1005 17.1284 13.112 17.0967 13.1253C17.0651 13.1386 17.0334 13.1534 17.0032 13.1696C16.973 13.1857 16.9434 13.2033 16.9145 13.2223C16.8856 13.2413 16.8576 13.2624 16.8316 13.2835C16.8042 13.306 16.7789 13.3292 16.7543 13.3538C16.7296 13.378 16.7063 13.4036 16.6846 13.4304C16.6628 13.4573 16.6424 13.4852 16.6235 13.5141C16.6042 13.5427 16.5863 13.5723 16.5701 13.6027C16.5538 13.6328 16.5393 13.6638 16.5264 13.6955C16.5131 13.7275 16.5013 13.7601 16.4912 13.7932C16.4815 13.8256 16.473 13.8593 16.466 13.8931C16.4591 13.927 16.4539 13.9613 16.4505 13.9957C16.447 14.0302 16.4455 14.0646 16.4455 14.0991C16.4455 14.1335 16.447 14.1687 16.4505 14.2032C16.4539 14.2374 16.4591 14.2714 16.466 14.3051C16.473 14.3389 16.4815 14.3726 16.4912 14.4057C16.5013 14.4386 16.5131 14.471 16.5264 14.5027C16.5393 14.5346 16.5538 14.5658 16.5701 14.5962C16.5862 14.6264 16.6045 14.656 16.6235 14.6848C16.6424 14.7135 16.6628 14.7412 16.6846 14.7678C16.7065 14.7947 16.7298 14.8205 16.7543 14.8451C16.7789 14.869 16.8042 14.8929 16.8316 14.9147C16.8581 14.9367 16.8857 14.9571 16.9145 14.9759C16.9434 14.9949 16.9729 15.0132 17.0032 15.0293C17.0643 15.0612 17.128 15.0875 17.1937 15.1081C17.2267 15.1179 17.2605 15.1264 17.2942 15.1334C17.362 15.1473 17.431 15.1541 17.5002 15.1538C17.7796 15.153 18.0474 15.0421 18.2455 14.8451C18.2941 14.7958 18.3382 14.7421 18.377 14.6848C18.396 14.656 18.4136 14.6264 18.4298 14.5962C18.4459 14.566 18.4607 14.5343 18.4741 14.5027C18.4874 14.471 18.4987 14.438 18.5084 14.4057C18.519 14.3727 18.5274 14.3391 18.5338 14.3051C18.5407 14.2714 18.5458 14.2374 18.5492 14.2032C18.5528 14.1685 18.5546 14.1338 18.5546 14.099L18.5548 14.0991ZM22.0705 14.0991C22.0705 13.8194 21.9594 13.5511 21.7616 13.3533C21.5638 13.1555 21.2955 13.0444 21.0158 13.0444H21.0137C20.8052 13.0448 20.6015 13.107 20.4283 13.2231C20.2552 13.3393 20.1203 13.5041 20.0408 13.6969C19.9613 13.8897 19.9407 14.1016 19.9816 14.3061C20.0225 14.5106 20.1231 14.6983 20.2707 14.8456C20.4183 14.9929 20.6062 15.0931 20.8108 15.1337C21.0153 15.1742 21.2273 15.1532 21.4199 15.0733C21.6125 14.9934 21.7771 14.8582 21.8929 14.6848C22.0087 14.5114 22.0705 14.3076 22.0705 14.0991Z" fill="white"></path></svg>