<svg xmlns="http://www.w3.org/2000/svg" width="130" height="32" viewBox="0 0 130 32" fill="none"><g opacity="0.6"><path fill-rule="evenodd" clip-rule="evenodd" d="M0.203125 7.30482L14.2733 0L28.4947 7.30482L14.2733 14.628L0.203125 7.30482ZM84.6707 10.8519V10.6755C84.6707 8.27178 86.0849 7.50088 88.4663 7.67163V3.27644C82.7608 2.92865 80.0566 5.78711 80.0566 10.6755V10.8519H77.4767V15.2478H80.0566V28.5534H84.6707V15.2478H89.9798V28.5534H94.5939V15.2478H98.3895V10.8519H94.5939V10.6755C94.5939 8.27178 95.9831 7.50088 98.3895 7.67163V3.27644C92.6839 2.92865 89.9798 5.78711 89.9798 10.6755V10.8519H84.6707ZM52.4206 15.6652C53.8835 14.5015 54.7763 12.8383 54.7763 10.7008C54.7763 6.55794 51.4029 3.72549 47.1609 3.72549H37.3114V28.5028H47.9545C52.2957 28.5028 55.7691 25.5748 55.7691 21.3314C55.7198 18.7702 54.4292 16.8092 52.4206 15.6652ZM47.1852 8.31667C48.773 8.31667 49.865 9.48596 49.865 11.0486C49.865 12.6164 48.723 13.78 47.1852 13.78H42.2489V8.31667H47.1852ZM47.9295 23.9623H42.2489V18.1245H47.9295C49.6172 18.1245 50.8322 19.364 50.8322 21.0273C50.8322 22.7164 49.6172 23.9623 47.9295 23.9623ZM70.1578 10.8266V20.3829C70.1578 23.4626 68.4714 24.7781 66.2136 24.7781C64.1295 24.7781 62.6659 23.5385 62.6659 21.1285V10.8266H58.0512V21.6982C58.0512 26.4159 61.0039 29.0277 64.8244 29.0277C67.2307 29.0277 69.0907 28.1298 70.1335 26.5424V28.5281H74.7469V10.8266H70.1578ZM117.516 21.5521H104.021C104.691 23.8864 106.626 24.8792 109.033 24.8792C110.843 24.8792 112.282 24.1324 113.052 23.1148L116.773 25.227C115.111 27.6358 112.431 29.0277 108.983 29.0277C102.979 29.0277 99.1837 24.9551 99.1837 19.6683C99.1837 14.375 103.004 10.3018 108.635 10.3018C113.92 10.3018 117.691 14.4509 117.691 19.6683C117.691 20.3576 117.616 20.9583 117.516 21.5521ZM108.635 14.4509C106.155 14.4509 104.467 15.7663 103.946 18.0233H113.076C112.505 15.4691 110.57 14.4509 108.635 14.4509ZM124.364 13.8812V10.8266H119.75V28.5281H124.364V20.0603C124.364 16.3349 127.391 15.2731 129.797 15.5697V10.4795C127.54 10.4795 125.282 11.4723 124.364 13.8812ZM14.2733 27.1558L4.67422 21.9386L0.203125 24.3606L14.2733 32L28.4947 24.3606L23.9731 21.9386L14.2733 27.1558ZM4.67422 13.711L14.2733 18.4408L23.9731 13.711L28.4947 15.9181L14.2733 22.8555L0.203125 15.9181L4.67422 13.711Z" fill="#515151"></path></g></svg>