<svg xmlns="http://www.w3.org/2000/svg" width="118" height="44" viewBox="0 0 118 44" fill="none"><g opacity="0.6"><path d="M18.6618 10.4977L9.56935 5.24886L0.479492 10.4977V5.24886L9.57063 0L18.663 5.24886V10.4977H18.6618Z" fill="#242D31"></path><path d="M0.479492 14.9061H5.24182V26.4766C5.24182 29.466 7.47419 30.9232 9.57063 30.9232C11.6852 30.9232 13.9007 29.4272 13.9007 26.4365V14.9061H18.663V26.7523C18.663 29.5061 17.7973 31.631 16.0658 33.0882C14.333 34.544 12.1692 35.2532 9.53053 35.2532C6.89442 35.2532 4.72935 34.5454 3.03795 33.0882C1.34525 31.6323 0.479492 29.5864 0.479492 26.87V14.9061ZM59.8353 29.2861C58.3935 30.5699 56.7514 31.1988 54.879 31.1988C51.4624 31.1988 49.1717 29.2525 48.9128 26.2385H64.3001C64.3001 26.2385 64.4034 25.2654 64.4034 24.3517C64.4034 21.5177 63.4976 19.1559 61.6468 17.2277C59.8379 15.2995 57.4776 14.3548 54.6032 14.3548C51.5736 14.3548 49.0928 15.2995 47.1246 17.2277C45.1962 19.1559 44.2127 21.6742 44.2127 24.8241V24.9794C44.2127 28.0891 45.1962 30.5686 47.1246 32.4192C49.0526 34.2684 51.6111 35.2131 54.721 35.2131C58.3366 35.2131 61.2136 33.787 63.3719 31.3282L59.8353 29.2861ZM50.7843 19.6283C51.8454 18.8013 53.146 18.3691 54.6019 18.3691C55.9789 18.3691 57.1202 18.8013 58.1049 19.6684C59.0447 20.4578 59.552 21.4271 59.5957 22.5413H49.0345C49.1872 21.3895 49.7696 20.4189 50.7856 19.6296L50.7843 19.6283ZM107.774 37.8867C105.842 42.4484 103.821 44 100.722 44H98.573V39.7787H100.31C101.376 39.7787 102.368 39.3775 103.312 37.1983L104.257 35.0164L96.1094 14.9061H100.951L106.736 29.3896L112.68 14.9061H117.52L107.776 37.8867H107.774ZM37.2025 7.31104V16.7023C35.6418 15.3047 33.2141 14.4726 30.8666 14.4726C28.0713 14.4726 25.7108 15.4561 23.7826 17.4619C21.8932 19.4302 20.9485 21.8696 20.9485 24.8215C20.9485 27.7746 21.8932 30.214 23.7826 32.2212C25.7108 34.1895 28.0725 35.1743 30.8666 35.1743C34.0889 35.1743 36.1258 33.9074 37.2025 32.9148V34.7408H41.926V7.31231H37.2025V7.31104ZM35.7855 29.1529C34.6441 30.2942 33.1882 30.8857 31.4955 30.8857C29.8028 30.8857 28.4259 30.2942 27.2845 29.1529C26.1844 28.0114 25.6318 26.5556 25.6318 24.8241C25.6318 23.0913 26.1832 21.6354 27.2845 20.494C28.4259 19.3526 29.8028 18.7625 31.4955 18.7625C33.1882 18.7625 34.6441 19.3526 35.7855 20.494C36.9657 21.6354 37.5584 23.0913 37.5584 24.8241C37.5584 26.5556 36.9657 28.0114 35.7855 29.1529ZM88.7663 14.5127C85.1789 14.5127 83.3145 16.0009 82.0372 17.4348C81.5259 16.4603 80.0867 14.5127 76.7249 14.5127C73.8827 14.5127 72.2084 15.9491 71.3724 16.9715V14.9087H66.69V34.7434H71.3724V23.3294C71.3724 20.6532 73.026 18.725 75.2288 18.725C77.474 18.725 78.772 20.4177 78.772 23.1327V34.7421H83.4552V23.3281C83.4552 20.6131 85.0678 18.7237 87.3893 18.7237C89.6336 18.7237 90.9316 20.4164 90.9316 23.1301V34.7408H95.655V22.4623C95.655 17.2911 92.875 14.514 88.7663 14.514V14.5127Z" fill="#5B5F60"></path></g></svg>