<svg xmlns="http://www.w3.org/2000/svg" width="130" height="40" viewBox="0 0 130 40" fill="none"><g opacity="0.6"><path d="M68.0919 16.0894C68.1127 16.7781 67.9914 17.4637 67.7368 18.1039C67.4816 18.7441 67.0984 19.3252 66.61 19.8115C65.3029 21.1092 63.1819 21.8168 60.632 21.7971C58.8024 21.7669 56.9533 21.3221 55.9075 20.6793L56.6043 17.0136C57.9877 17.7662 59.5219 18.1989 61.095 18.2796C62.2848 18.2796 63.0867 17.7304 63.0867 16.8496C63.0867 16.0511 62.5233 15.4931 61.0836 14.7889C58.8071 13.6503 57.6675 12.2069 57.6675 10.5058C57.6675 7.15848 60.5181 4.89653 64.7958 4.89653C67.0595 4.89653 68.5328 5.42994 69.3494 5.95425L68.654 9.61271C68.0068 9.12612 66.3608 8.4472 64.5653 8.4472C63.3192 8.4472 62.5072 8.96936 62.5072 9.84351C62.5072 10.4706 63.1283 11.0324 64.4434 11.6735C66.1571 12.5296 68.0919 13.797 68.0919 16.0894ZM38.4433 4.93009C32.4178 4.93009 27.8777 9.33026 27.8777 15.1653C27.8777 19.1951 30.5554 21.7971 34.709 21.7971C36.4857 21.7971 38.2122 21.4716 39.3243 20.9305L40.0853 16.9103C38.8513 17.5839 37.4699 17.9412 36.0636 17.95C34.5449 17.95 32.9155 17.076 32.9155 14.6363C32.9155 11.7614 34.9542 8.77782 38.377 8.77782C39.3015 8.75015 40.2173 8.96808 41.0306 9.40951L41.7756 5.50076C40.7091 5.1081 39.5795 4.91468 38.4433 4.93009ZM122.934 18.0486C124.929 18.0533 126.885 17.5012 128.583 16.4546L127.813 20.5013C125.521 21.6713 122.829 21.7984 121.778 21.7984C117.304 21.7984 114.747 19.3105 114.747 14.9669C114.753 12.4467 115.646 10.009 117.27 8.08134C118.119 7.07561 119.18 6.26906 120.375 5.71876C121.571 5.16853 122.874 4.88795 124.19 4.89707C127.574 4.89707 129.832 6.86323 129.832 9.77852C129.854 10.3886 129.75 10.9967 129.526 11.5645C129.302 12.1323 128.962 12.6475 128.529 13.0776C126.913 14.6528 122.929 15.5357 119.301 14.8232C119.128 16.8674 120.667 18.0486 122.934 18.0486ZM119.827 11.7038C122.649 11.727 124.236 11.4416 124.928 10.7557C125.678 10.0106 125.444 8.4141 123.595 8.4141C121.515 8.4141 120.191 10.1193 119.827 11.7038ZM112.315 4.93009C106.288 4.93009 101.749 9.33026 101.749 15.1653C101.749 19.1951 104.426 21.7971 108.58 21.7971C110.356 21.7971 112.084 21.4716 113.195 20.9305L113.957 16.9103C112.723 17.584 111.341 17.9412 109.935 17.95C108.416 17.95 106.786 17.0761 106.786 14.6363C106.786 11.7614 108.826 8.77782 112.248 8.77782C113.173 8.75015 114.088 8.96808 114.901 9.40951L115.646 5.50082C114.58 5.1081 113.451 4.91468 112.315 4.93009ZM100.958 12.3929L99.2238 21.4671H94.6313L95.2282 18.3438C94.5837 20.2904 93.0147 21.8308 90.3825 21.8308C87.1875 21.8308 85.7431 18.9945 85.7417 16.156C85.7397 12.9314 87.0066 9.73819 89.1283 7.61465C89.9953 6.73956 91.0297 6.0479 92.1699 5.58095C93.3095 5.114 94.5322 4.88125 95.7642 4.8966C97.7151 4.90437 99.1582 5.46913 100.063 6.56517C101.401 8.18725 101.291 10.6223 100.958 12.3929ZM96.536 10.3052C96.4797 9.16103 95.8841 8.54414 94.8162 8.54414C92.5551 8.54414 90.5955 12.4475 90.5975 15.162C90.5982 16.858 91.2266 17.9143 92.32 17.9143C94.0699 17.9143 95.5759 16.0848 96.0945 13.406C96.2707 12.5007 96.5681 11.0146 96.536 10.3052ZM27.0866 12.3929L25.3528 21.4671H20.7604L21.3572 18.3438C20.7131 20.2904 19.1439 21.8308 16.5115 21.8308C13.3165 21.8308 11.8726 18.9945 11.8709 16.156C11.8687 12.9314 13.1356 9.73819 15.2574 7.61465C16.1246 6.73956 17.159 6.0479 18.299 5.58095C19.439 5.114 20.6614 4.88125 21.8933 4.8966C23.8442 4.90437 25.2875 5.46913 26.1919 6.56517C27.5305 8.18725 27.4207 10.6223 27.0866 12.3929ZM22.6653 10.3052C22.6092 9.16103 22.0136 8.54414 20.9457 8.54414C18.6842 8.54414 16.7249 12.4475 16.7267 15.162C16.7273 16.858 17.3558 17.9143 18.4496 17.9143C20.1988 17.9143 21.7055 16.0848 22.2237 13.406C22.4003 12.5007 22.6975 11.0146 22.6653 10.3052ZM85.4208 11.0672C85.4208 15.0096 83.5282 19.0517 80.1162 20.8705C79.0449 21.4659 77.8464 21.7952 76.621 21.8309C74.9133 21.8308 73.956 21.1925 73.41 20.208L72.1887 26.6629H67.3804L71.4624 5.19526H75.6972L75.2021 7.80116C76.398 6.06077 78.17 4.8966 80.1758 4.8966C83.3574 4.8966 85.4208 7.30815 85.4208 11.0672ZM80.4203 11.4314C80.4203 10.6672 80.2401 8.81138 78.4788 8.81138C76.688 8.81138 75.1766 10.8515 74.5904 13.946C74.3901 15.0041 73.8287 18.181 76.0409 18.181C78.5659 18.181 80.4203 14.5961 80.4203 11.4314ZM6.8632 8.80254L7.54856 5.19526H3.31427L0.165039 21.7535H4.97374L6.27223 14.9263C7.03792 10.9006 9.34757 9.28959 12.6345 9.78723L13.5736 4.84823C12.1817 4.71993 10.7845 5.0328 9.58024 5.74248C8.37594 6.45215 7.42535 7.52273 6.8632 8.80254ZM45.4309 21.4671L47.087 12.7546L50.4964 21.4671H55.667L52.1397 12.6854L58.5585 5.19526H53.3095L47.1158 12.6033L49.5115 0H44.7368L40.6555 21.4671H45.4309ZM100.757 32.8501C100.757 35.1955 99.1327 37.1987 96.7892 37.1987C95.0534 37.1987 93.9801 35.9984 93.9801 34.3622C93.9801 32.032 95.6041 30.0136 97.9476 30.0136C99.7966 30.0136 100.757 31.3408 100.757 32.8501ZM95.6744 34.3194C95.6744 35.2644 96.1682 35.9294 97.015 35.9294C98.2444 35.9294 99.0624 34.2352 99.0624 32.8639C99.0624 32.1589 98.7381 31.2828 97.7493 31.2828C96.4375 31.2829 95.6744 33.035 95.6744 34.3194ZM111.945 32.8501C111.945 35.1955 110.322 37.1987 107.977 37.1987C106.242 37.1987 105.169 35.9984 105.169 34.3622C105.169 32.032 106.792 30.0136 109.136 30.0136C110.985 30.0136 111.945 31.3408 111.945 32.8501ZM106.863 34.3194C106.863 35.2644 107.357 35.9294 108.204 35.9294C109.433 35.9294 110.251 34.2352 110.251 32.8639C110.251 32.1589 109.927 31.2828 108.938 31.2828C107.626 31.2829 106.863 33.035 106.863 34.3194ZM103.217 27.9181L101.481 37.0441H103.12L104.868 27.9181H103.217ZM76.7142 30.0274C76.1353 30.0233 75.5619 30.1352 75.0272 30.3566C74.492 30.5779 74.0069 30.9042 73.6003 31.3161C73.1936 31.7279 72.874 32.2172 72.6596 32.7549C72.4453 33.2925 72.3407 33.8676 72.3521 34.4463C72.3521 36.084 73.41 37.1849 75.1331 37.1849C75.8319 37.2 76.5253 37.0565 77.1604 36.7653L77.4317 35.3385C76.8723 35.6707 76.2352 35.8497 75.5846 35.8577C74.6668 35.8577 74.0739 35.2782 74.0739 34.249C74.0739 32.8087 75.0768 31.3546 76.6579 31.3546C77.1007 31.3467 77.5382 31.4574 77.9248 31.6752L78.1847 30.3077C77.7178 30.1175 77.218 30.0221 76.7142 30.0274ZM67.3222 35.1955C67.1748 34.8925 67.1118 34.5557 67.1386 34.2201C69.7929 34.2766 71.6413 33.711 71.6413 31.9478C71.6413 30.7889 70.7804 30.0136 69.4245 30.0136C67.0528 30.0136 65.5287 32.2721 65.5287 34.347C65.5287 36.0274 66.4459 37.1987 68.3525 37.1987C69.2596 37.2073 70.1534 36.9856 70.9513 36.5541L71.2326 35.0739C70.5118 35.614 69.6342 35.9041 68.7331 35.9005C68.4564 35.9234 68.1777 35.8698 67.9291 35.7455C67.6799 35.6212 67.4702 35.431 67.3222 35.1955ZM69.2134 31.2415C69.736 31.2415 70.0884 31.5091 70.0884 31.9478C70.0884 32.7798 69.001 33.006 67.3067 32.9909C67.5057 32.1589 68.183 31.2415 69.2134 31.2415ZM92.8459 31.9037C92.8459 30.6055 92.0835 30.0136 91.0953 30.0136C90.5888 30.0202 90.0917 30.1561 89.6522 30.4085C89.2128 30.6609 88.845 31.0212 88.5844 31.4556L88.8389 30.1267H87.3563L86.0406 37.0441H87.6793L88.2876 33.8682C88.5843 32.2569 89.5283 31.3546 90.276 31.3546C90.9258 31.3546 91.1382 31.7629 91.1382 32.3424C91.1355 32.6174 91.1087 32.8917 91.0571 33.1619L90.3188 37.0441H91.9576L92.7253 33.035C92.799 32.6622 92.8392 32.2836 92.8459 31.9037ZM83.3252 30.0136C82.8824 30.016 82.4463 30.1197 82.0497 30.3168C81.6537 30.514 81.3074 30.7994 81.0387 31.1511L81.6577 27.9181H80.0063L78.2705 37.0441H79.9092L80.5182 33.8682C80.8143 32.2569 81.7582 31.3546 82.5059 31.3546C83.1557 31.3546 83.3681 31.763 83.3681 32.3424C83.3654 32.6174 83.3386 32.8917 83.2871 33.1619L82.5488 37.0441H84.1875L84.9559 33.035C85.0289 32.6622 85.0691 32.2836 85.0758 31.9037C85.0758 30.6055 84.3134 30.0136 83.3252 30.0136ZM64.2417 28.3984H62.6432L62.2922 30.1682H61.3743L61.1345 31.4387H62.053L61.4601 34.5029C61.3703 34.9207 61.3228 35.3463 61.3181 35.7735C61.3181 36.564 61.8131 37.1849 62.942 37.1849C63.3051 37.1978 63.6676 37.1502 64.0153 37.0441L64.2632 35.7405C64.0468 35.7835 63.8264 35.8043 63.6053 35.8024C63.5215 35.8134 63.4364 35.8048 63.3567 35.7772C63.277 35.7495 63.2046 35.7037 63.1464 35.6433C63.0874 35.5829 63.0432 35.5096 63.0177 35.4292C62.9916 35.3488 62.9856 35.2636 62.9983 35.1803C63.0077 34.8521 63.0499 34.5258 63.1249 34.2062L63.6622 31.4387H65.2018L65.4557 30.1681H63.9155L64.2417 28.3984ZM119.476 39.6137C120.735 40.1965 121.977 39.9385 122.876 38.3284V38.3258L127.476 30.1267H125.726L123.114 35.2451L122.479 30.1267H120.756L121.981 36.8595L121.445 37.9343C120.963 38.7577 120.122 38.489 119.731 38.272L119.476 39.6137ZM117.238 30.0136C114.314 30.0136 112.816 32.5988 112.816 34.7742C112.816 36.0032 113.424 37.2039 114.893 37.2039C115.345 37.2014 115.79 37.0883 116.189 36.8743C116.587 36.6603 116.927 36.3519 117.179 35.9762L117.047 36.5779C116.709 38.1741 115.889 38.6818 114.816 38.6818C114.19 38.6895 113.571 38.5491 113.009 38.272L112.754 39.6137C113.395 39.8839 114.087 40.014 114.782 39.9951C115.7 40.0402 116.606 39.7711 117.35 39.2322C118.134 38.5838 118.52 37.5105 118.777 36.1694L119.399 33.051C119.488 32.6615 119.535 32.2638 119.541 31.8644C119.541 30.6213 118.679 30.0136 117.238 30.0136ZM117.761 32.966L117.634 33.6017C117.351 34.9862 116.475 35.862 115.628 35.862C114.865 35.862 114.54 35.2264 114.54 34.4776C114.54 33.1216 115.487 31.271 116.927 31.271C117.048 31.2565 117.17 31.2688 117.285 31.307C117.4 31.3452 117.505 31.4084 117.593 31.4922C117.681 31.5759 117.749 31.678 117.793 31.7913C117.836 31.9045 117.854 32.0259 117.846 32.1469C117.85 32.4224 117.821 32.6973 117.761 32.966ZM129.308 35.6263C129.331 35.4256 129.311 35.2223 129.249 35.0301C129.187 34.8378 129.085 34.661 128.949 34.5115C128.813 34.3619 128.647 34.2431 128.462 34.1631C128.277 34.083 128.076 34.0435 127.874 34.0473C127.445 34.0554 127.033 34.2205 126.717 34.5114C126.4 34.8022 126.201 35.1988 126.156 35.6263C126.133 35.8266 126.153 36.0295 126.215 36.2214C126.277 36.4134 126.38 36.5898 126.516 36.7388C126.652 36.8878 126.818 37.006 127.003 37.0853C127.188 37.1646 127.389 37.2032 127.59 37.1986C128.02 37.1931 128.432 37.0297 128.749 36.7398C129.065 36.4498 129.264 36.0535 129.308 35.6263ZM129.083 35.6064C129.043 35.977 128.87 36.3204 128.595 36.5722C128.32 36.8239 127.963 36.9668 127.59 36.974C127.42 36.9777 127.251 36.9449 127.094 36.8779C126.938 36.8108 126.798 36.711 126.684 36.5852C126.569 36.4593 126.483 36.3103 126.43 36.1484C126.378 35.9864 126.361 35.8151 126.381 35.6461C126.421 35.2755 126.595 34.9322 126.869 34.6805C127.145 34.4287 127.502 34.2858 127.874 34.2785C128.044 34.2754 128.213 34.3085 128.369 34.3758C128.525 34.4431 128.665 34.5429 128.779 34.6686C128.894 34.7943 128.98 34.943 129.033 35.1047C129.085 35.2664 129.102 35.4375 129.083 35.6064ZM127.993 35.8179L128.244 36.5512H128L127.756 35.8376H127.405L127.273 36.5512H127.041L127.392 34.6947H128C128.063 34.6928 128.126 34.7035 128.186 34.726C128.245 34.7486 128.299 34.7827 128.345 34.8263C128.391 34.8698 128.428 34.9221 128.454 34.98C128.48 35.038 128.494 35.1004 128.495 35.1638C128.494 35.3125 128.444 35.4567 128.353 35.5747C128.263 35.6926 128.136 35.778 127.993 35.8179ZM128 34.9193H127.577L127.445 35.6131H127.828C127.931 35.6082 128.03 35.5692 128.109 35.5023C128.188 35.4354 128.243 35.3442 128.264 35.243C128.272 35.2038 128.272 35.1632 128.263 35.1241C128.253 35.0851 128.235 35.0487 128.21 35.0176C128.184 34.9865 128.152 34.9615 128.116 34.9445C128.08 34.9275 128.04 34.9189 128 34.9193Z" fill="#5B5F60"></path></g></svg>