<svg xmlns="http://www.w3.org/2000/svg" width="134" height="34" viewBox="0 0 134 34" fill="none"><g opacity="0.6"><path d="M0.265625 24.7586V33.4708H6.37531V25.1344C6.37531 24.3272 6.6954 23.5478 7.26601 22.9772C7.85054 22.3927 8.61599 22.0726 9.43711 22.0726H15.6999C18.6225 22.0726 21.4338 20.9175 23.4935 18.8438C25.5672 16.7702 26.7224 13.9589 26.7224 11.0363C26.7224 8.11371 25.5672 5.30244 23.4935 3.22878C21.4338 1.16904 18.6225 0 15.6999 0H0.265625V10.8971H6.37531V5.76171H15.2824C16.6741 5.76171 17.9962 6.30448 18.9704 7.2926C19.9586 8.2668 20.5013 9.60285 20.5013 10.9806C20.5013 12.3724 19.9586 13.6945 18.9844 14.6687C17.9962 15.6568 16.6741 16.1996 15.2824 16.1996H8.81083C7.68353 16.1996 6.57015 16.4223 5.54027 16.8537C4.49648 17.2851 3.56402 17.9114 2.77073 18.7047C1.96353 19.498 1.33725 20.4443 0.905819 21.4881C0.488301 22.518 0.265625 23.6313 0.265625 24.7586Z" fill="#515151"></path><path d="M9.4371 22.0725C7.00158 22.0725 4.66348 23.0467 2.95166 24.7585C1.23217 26.4789 0.266052 28.8116 0.265625 31.2439V33.4707H6.37531V25.1343C6.37531 24.3271 6.6954 23.5477 7.26601 22.9771C7.85054 22.3926 8.61599 22.0725 9.4371 22.0725Z" fill="#0A0A0A"></path><path d="M27.6699 33.4714V20.1944C27.6699 14.7806 30.8431 10.4663 37.1615 10.4663C38.1775 10.4524 39.1934 10.5637 40.1815 10.8003V16.2558C39.4578 16.2141 38.8316 16.2141 38.5532 16.2141C35.1992 16.2141 33.7518 17.745 33.7518 20.8624V33.4714H27.6699ZM54.0292 34.0002C47.3768 34.0002 42.0047 28.7395 42.0047 22.2402C42.0047 15.727 47.3768 10.4663 54.0292 10.4663C60.6678 10.4663 66.0537 15.727 66.0537 22.2402C66.0537 28.7395 60.6678 34.0002 54.0292 34.0002ZM60.0554 22.2124C60.0554 18.6357 57.3555 15.7409 54.0292 15.7409C50.6891 15.7409 47.9891 18.6357 47.9891 22.2124C47.9891 25.7891 50.6891 28.6839 54.0292 28.6839C57.3555 28.6839 60.0554 25.7891 60.0554 22.2124ZM83.673 15.7826H77.118V24.1747C77.118 27.0973 78.1618 28.4473 81.1818 28.4473C81.4741 28.4473 82.1839 28.4473 83.1024 28.3916V33.3322C81.8498 33.6662 80.7504 33.861 79.5535 33.861C74.4737 33.861 71.0361 30.7854 71.0361 24.9958V15.7826H66.9584V10.9395H67.9743C68.3779 10.9395 68.7676 10.8699 69.1434 10.7168C69.5191 10.5498 69.8532 10.3271 70.1315 10.0488C70.4238 9.75651 70.6465 9.4225 70.7995 9.04674C70.9526 8.68489 71.0361 8.28129 71.0361 7.8777V3.32678H77.118V10.9395H83.673V15.7826ZM97.5207 34.0002C90.8682 34.0002 85.4962 28.7395 85.4962 22.2402C85.4962 15.727 90.8682 10.4663 97.5207 10.4663C104.173 10.4663 109.545 15.727 109.545 22.2402C109.545 28.7395 104.173 34.0002 97.5207 34.0002ZM103.561 22.2124C103.561 18.6357 100.861 15.7409 97.5207 15.7409C94.1805 15.7409 91.4806 18.6357 91.4806 22.2124C91.4806 25.7891 94.1805 28.6839 97.5207 28.6839C100.861 28.6839 103.561 25.7891 103.561 22.2124ZM112.704 33.4714V20.6815C112.704 14.7249 116.49 10.4663 123.24 10.4663C129.948 10.4663 133.733 14.7249 133.733 20.6815V33.4714H127.693V21.1547C127.693 17.8424 126.218 15.7826 123.24 15.7826C120.275 15.7826 118.786 17.8424 118.786 21.1547V33.4714H112.704Z" fill="#515151"></path></g></svg>