<svg xmlns="http://www.w3.org/2000/svg" width="192" height="38" viewBox="0 0 192 38" fill="none"><g opacity="0.6"><path d="M20.4358 29.9998C27.5571 29.9998 33.0613 24.6273 33.0613 18C33.0613 11.7911 27.8902 8.00008 24.4652 8.00008C19.6959 8.00008 15.873 11.3423 15.3284 16.304C15.2275 17.2227 14.4984 17.9933 13.5733 17.9867C12.0353 17.9756 9.79932 17.9626 8.38387 17.9675C7.77454 17.9696 7.27068 17.4758 7.30083 16.8676C7.51442 12.5645 8.95521 8.54094 11.7028 5.45021C14.7557 2.01584 19.2017 0 24.4652 0C33.3088 0 41.6574 8.02427 41.6574 18C41.6574 29.0456 32.4927 38 20.624 38C12.1596 38 3.63468 32.4761 0.658323 24.7535C0.647278 24.7249 0.645498 24.6949 0.650878 24.6639C0.690471 24.4354 0.769185 24.2266 0.846699 24.0211C0.959402 23.7223 1.06957 23.4302 1.05348 23.0934L1.00204 22.0176C0.97669 21.487 1.27693 20.9935 1.7626 20.7678L2.19286 20.5678C2.68346 20.3397 3.03219 19.8905 3.12871 19.3625C3.27293 18.5736 3.96648 18 4.77601 18C6.04008 18 7.1394 18.8394 7.55236 20.033C9.53984 25.7776 12.6994 29.9998 20.4358 29.9998Z" fill="#242D31"></path><path d="M177.861 13.2726C176.283 13.2726 175.798 12.3333 175.798 11.2729C175.798 10.152 176.192 9.27332 177.861 9.27332C179.528 9.27332 179.922 10.152 179.922 11.2729C179.922 12.3333 179.498 13.2726 177.861 13.2726Z" fill="#575D5E"></path><path d="M149.073 26.277V18.4906L146.854 18.4797V17.5732C146.854 16.586 147.658 15.7871 148.647 15.7919L149.073 15.7941V12.4916L152.621 11.4918V15.7941H155.836V16.7093C155.836 17.6931 155.038 18.4906 154.053 18.4906H152.621V25.8226C152.621 26.9512 153.261 27.3476 154.086 27.4839C155.058 27.6444 155.866 28.347 155.866 29.3308V30.67C152.506 30.67 149.073 30.5221 149.073 26.277Z" fill="#575D5E"></path><path fill-rule="evenodd" clip-rule="evenodd" d="M79.0732 15.4572C75.5246 15.3663 71.1577 17.6083 71.1577 23.2134C71.1577 28.7274 75.5246 30.9089 79.0732 30.818C82.7124 30.9089 87.0495 28.7274 87.0495 23.2134C87.0495 17.6083 82.7124 15.3663 79.0732 15.4572ZM79.0992 28.066C76.5215 28.066 74.6924 26.1896 74.6924 23.0994C74.6924 20.1604 76.5227 18.2243 79.1004 18.2243C81.6781 18.2243 83.4882 20.1564 83.4882 23.0953C83.4882 26.1857 81.6769 28.066 79.0992 28.066Z" fill="#575D5E"></path><path d="M96.3666 15.4946C99.4598 15.4946 102.675 16.3429 102.675 22.4024V30.5222H100.697C99.7125 30.5222 98.9139 29.7247 98.9139 28.741V22.0995C98.9139 19.2211 97.853 18.1305 96.0024 18.1305C94.9713 18.1305 93.6375 18.9182 93.0004 19.5545V28.741C93.0004 29.7247 92.2017 30.5222 91.2175 30.5222H89.4214V15.8582H91.4221C92.1327 15.8582 92.7496 16.3481 92.9092 17.0398C93.8193 16.0399 95.0017 15.4946 96.3666 15.4946Z" fill="#575D5E"></path><path d="M106.736 15.8297C107.49 15.8297 108.162 16.3031 108.415 17.0121L111.662 26.1006L114.909 17.0123C115.163 16.3031 115.834 15.8297 116.588 15.8297H119.153L113.864 29.3604C113.597 30.0439 112.938 30.4937 112.203 30.4937H109.934L104.171 15.8297H106.736Z" fill="#575D5E"></path><path fill-rule="evenodd" clip-rule="evenodd" d="M133.171 29.783C132.049 30.2374 129.773 30.8428 127.407 30.8428C123.252 30.8428 120.07 28.4495 120.07 23.0566C120.07 18.209 123.155 15.6171 126.916 15.6171C131.557 15.6171 133.537 18.7294 133.33 22.9664C133.288 23.8418 132.525 24.4803 131.648 24.4803H123.647C123.829 26.8436 125.557 28.0858 127.831 28.0858C128.725 28.0858 129.664 28.0404 130.789 27.8305C131.982 27.6076 133.171 28.4559 133.171 29.6689V29.783ZM130.118 21.9959C130.362 19.677 128.795 18.4045 126.916 18.4045C125.035 18.4045 123.767 19.8146 123.647 21.9959H130.118Z" fill="#575D5E"></path><path d="M138.062 15.8593C138.739 15.8593 139.329 16.3224 139.489 16.9803C140.702 16.0713 142.219 15.4957 143.28 15.4957C143.372 15.4957 143.947 15.4957 144.857 15.6169V17.1892C144.857 18.0344 144.126 18.6769 143.28 18.6769C142.31 18.6769 140.884 19.0406 139.762 19.6767V30.5233H136.153V15.8593H138.062Z" fill="#575D5E"></path><path d="M179.677 28.7034V15.8207H177.881C176.897 15.8207 176.099 16.6181 176.099 17.6019V30.4846H177.894C178.879 30.4846 179.677 29.6872 179.677 28.7034Z" fill="#575D5E"></path><path d="M184.559 26.3062V18.5197H182.163V17.6044C182.163 16.6207 182.961 15.8232 183.946 15.8232H184.559V12.5208L188.106 11.521V15.8232H191.321V16.7385C191.321 17.7222 190.523 18.5197 189.538 18.5197H188.106V25.8517C188.106 26.9804 188.747 27.3768 189.573 27.5131C190.544 27.6737 191.352 28.3762 191.352 29.3599V30.6993C187.992 30.6993 184.559 30.5513 184.559 26.3062Z" fill="#575D5E"></path><path d="M53.4233 20.1875C53.446 13.3313 58.6215 9.5 63.5881 9.5C66.3467 9.5 68.8763 10.0937 70.9561 11.5782L70.1144 12.7316C69.552 13.5033 68.4842 13.81 67.5956 13.4588C66.3404 12.9632 65.1592 12.8585 64.2785 12.8585C60.2147 12.8585 57.15 15.467 57.1281 20.1873C57.15 24.9075 60.2147 27.5538 64.2785 27.5538C65.1592 27.5538 66.3404 27.4491 67.5956 26.9535C68.4842 26.6023 69.552 26.8718 70.1144 27.6434L70.9561 28.7968C68.8763 30.2813 66.3467 30.875 63.5881 30.875C58.6215 30.875 53.446 27.0438 53.4233 20.1875Z" fill="#575D5E"></path><path d="M160.266 9.6073C161.251 9.6073 162.049 10.4048 162.049 11.3885V19.555L169.347 10.3932C169.683 9.93758 170.216 9.66867 170.782 9.66867H174.024L165.773 20.0776L174.024 30.4825H170.782C170.216 30.4825 169.683 30.2136 169.347 29.7579L162.049 20.5985V28.701C162.049 29.6848 161.251 30.4823 160.266 30.4823H158.378V9.6073H160.266Z" fill="#575D5E"></path></g></svg>