<svg xmlns="http://www.w3.org/2000/svg" width="125" height="36" viewBox="0 0 125 36" fill="none"><g opacity="0.6"><path d="M137.833 27.3243H134.541V24.9269C133.987 25.758 133.252 26.4187 132.335 26.9088C131.441 27.3775 130.3 27.6119 128.915 27.6119C127.744 27.6119 126.657 27.3881 125.656 26.9407C124.654 26.4932 123.791 25.8859 123.067 25.1188C122.342 24.3516 121.777 23.4566 121.372 22.4338C120.967 21.3896 120.765 20.2709 120.765 19.0777C120.765 17.8629 120.967 16.7336 121.372 15.6895C121.777 14.6454 122.342 13.7396 123.067 12.9725C123.791 12.1841 124.654 11.5768 125.656 11.1506C126.657 10.7031 127.744 10.4794 128.915 10.4794C130.3 10.4794 131.441 10.7244 132.335 11.2145C133.252 11.6833 133.987 12.3439 134.541 13.1963V10.799H137.833V27.3243ZM134.541 18.1507C134.456 17.5327 134.275 16.9573 133.998 16.4246C133.721 15.8706 133.358 15.4017 132.911 15.0182C132.463 14.6134 131.942 14.2937 131.345 14.0593C130.748 13.8249 130.098 13.7077 129.395 13.7077C128.585 13.7077 127.86 13.8569 127.222 14.1552C126.583 14.4322 126.039 14.8265 125.591 15.3378C125.143 15.828 124.803 16.4033 124.568 17.0639C124.334 17.7032 124.216 18.3744 124.216 19.0777C124.216 19.7808 124.334 20.452 124.568 21.0914C124.825 21.7092 125.176 22.2634 125.623 22.7535C126.071 23.2436 126.614 23.6377 127.253 23.9361C127.893 24.2131 128.606 24.3516 129.395 24.3516C130.098 24.3516 130.748 24.2451 131.345 24.032C131.942 23.7976 132.463 23.4886 132.911 23.1051C133.358 22.7002 133.721 22.242 133.998 21.7306C134.275 21.1979 134.456 20.6331 134.541 20.0365V18.1507Z" fill="#515151"></path><path d="M105.847 5.90784H109.299V24.1271H119.72V27.3235H105.847V5.90784Z" fill="#515151"></path><path d="M34.916 10.799H38.2082V13.484C38.8049 12.5464 39.5401 11.8112 40.4137 11.2785C41.3087 10.7457 42.3315 10.4794 43.4822 10.4794C44.7395 10.4794 45.7836 10.8097 46.6147 11.4702C47.4458 12.1095 48.0424 12.9725 48.4047 14.0593C49.0013 12.9513 49.7791 12.0775 50.738 11.4383C51.697 10.799 52.8157 10.4794 54.0942 10.4794C54.9253 10.4794 55.671 10.6285 56.3316 10.9269C56.9923 11.2252 57.5463 11.6514 57.9937 12.2054C58.4626 12.7381 58.8142 13.3774 59.0486 14.1232C59.3043 14.8691 59.4321 15.6788 59.4321 16.5525V27.3243H56.1399V17.4474C56.1399 16.2328 55.8309 15.3059 55.2129 14.6666C54.6163 14.006 53.8492 13.6758 52.9116 13.6758C52.3362 13.6758 51.7928 13.8355 51.2814 14.1552C50.7912 14.4535 50.3651 14.8477 50.0029 15.3378C49.6406 15.828 49.3529 16.3927 49.1398 17.0319C48.948 17.6499 48.8415 18.2785 48.8202 18.9178V27.3243H45.528V17.4474C45.528 16.2328 45.219 15.3059 44.601 14.6666C44.0044 14.006 43.2372 13.6758 42.2996 13.6758C41.7243 13.6758 41.1915 13.8355 40.7014 14.1552C40.2113 14.4535 39.7851 14.8477 39.4228 15.3378C39.0606 15.828 38.773 16.3927 38.5598 17.0319C38.3467 17.6499 38.2296 18.2785 38.2082 18.9178V27.3243H34.916V10.799Z" fill="#515151"></path><path d="M31.2652 27.3228H27.9729V24.4141C27.3549 25.4157 26.5345 26.2041 25.5117 26.7795C24.4888 27.3548 23.3381 27.6424 22.0596 27.6424C21.1432 27.6424 20.3229 27.4933 19.5984 27.195C18.8951 26.8753 18.2879 26.4492 17.7764 25.9165C17.2863 25.3624 16.9028 24.7231 16.6257 23.9986C16.3701 23.2528 16.2422 22.443 16.2422 21.5694V10.7976H19.5344V20.6744C19.5344 21.889 19.8754 22.8266 20.5572 23.4871C21.2605 24.1265 22.1555 24.4461 23.2422 24.4461C23.9241 24.4461 24.542 24.297 25.0962 23.9986C25.6715 23.679 26.1615 23.2741 26.5665 22.784C26.9926 22.2725 27.3229 21.7079 27.5574 21.0899C27.813 20.4507 27.9515 19.8113 27.9729 19.1721V10.7976H31.2652V27.3228Z" fill="#515151"></path><path d="M0.168457 5.90784H3.62053V24.1271H14.0407V27.3235H0.168457V5.90784Z" fill="#515151"></path><mask id="mask0_347_240" style="mask-type:luminance" maskUnits="userSpaceOnUse" x="65" y="0" width="35" height="36"><path d="M99.8413 0.686279H65.2139V35.3137H99.8413V0.686279Z" fill="white"></path></mask><g mask="url(#mask0_347_240)"><path d="M67.8775 0.686279C66.4064 0.686279 65.2139 1.87883 65.2139 3.34993V32.6501C65.2139 34.1211 66.4064 35.3136 67.8775 35.3136H97.1776C98.6487 35.3136 99.8413 34.1211 99.8413 32.6501V3.34993C99.8413 1.87883 98.6487 0.686279 97.1776 0.686279H67.8775ZM82.5276 25.8984C80.9693 25.8984 79.446 25.4364 78.1503 24.5707C76.8547 23.705 75.8448 22.4744 75.2484 21.0347C74.6521 19.5951 74.4961 18.0109 74.8001 16.4826C75.1042 14.9542 75.8545 13.5503 76.9564 12.4485C78.0583 11.3466 79.4622 10.5962 80.9905 10.2922C82.5187 9.98823 84.1029 10.1443 85.5427 10.7406C86.9823 11.3369 88.2128 12.3468 89.0785 13.6424C89.9443 14.938 90.4064 16.4614 90.4064 18.0196C90.4064 20.1093 89.5763 22.1133 88.0987 23.5908C86.6211 25.0683 84.6172 25.8984 82.5276 25.8984Z" fill="#515151"></path></g></g></svg>