<svg xmlns="http://www.w3.org/2000/svg" width="150" height="32" viewBox="0 0 150 32" fill="none"><g opacity="0.6"><path d="M0 2.93174C0 1.31261 1.31274 0 2.93204 0H14.4009C16.0202 0 17.333 1.31261 17.333 2.93174V5.2C17.333 6.00956 16.6766 6.66587 15.867 6.66587H1.46602C0.65637 6.66587 0 6.00956 0 5.2V2.93174Z" fill="#5B5F60"></path><path d="M0 12.1373C0 11.3276 0.65637 10.6714 1.46602 10.6714H29.0672C30.6865 10.6714 31.9993 11.9839 31.9993 13.6031V21.204C31.9993 22.0135 31.343 22.6699 30.5334 22.6699H2.93204C1.31274 22.6699 0 21.3572 0 19.7381V12.1373Z" fill="#5B5F60"></path><path d="M14.6733 28.1332C14.6733 27.3237 15.3297 26.6674 16.1393 26.6674H30.5403C31.3499 26.6674 32.0063 27.3237 32.0063 28.1332V29.0682C32.0063 30.6874 30.6935 32 29.0742 32H17.6054C15.9861 32 14.6733 30.6874 14.6733 29.0682V28.1332Z" fill="#5B5F60"></path><path d="M50.1253 19.6578H53.2075L58.9309 29.0128H65.9387L59.5913 18.9973C63.1138 17.7867 65.1682 15.072 65.1682 11.1464C65.1682 5.64348 61.3161 2.67188 55.1153 2.67188H43.998V29.0128H50.1253V19.6578ZM50.1253 14.6684V7.84468H54.785C57.6835 7.84468 59.151 9.09201 59.151 11.2565C59.151 13.3843 57.6835 14.6684 54.785 14.6684H50.1253Z" fill="#5B5F60"></path><path d="M76.4838 29.406C80.3365 29.406 83.859 27.4617 85.29 23.7563L80.3736 22.1787C79.8232 23.8664 78.3922 24.7469 76.5574 24.7469C74.3193 24.7469 72.7418 23.2428 72.3379 20.6012H85.4366V19.0605C85.4366 13.5941 82.2443 9.26514 76.3743 9.26514C70.7969 9.26514 66.6875 13.5941 66.6875 19.3173C66.6875 25.3339 70.6503 29.406 76.4838 29.406ZM76.3007 13.8143C78.4652 13.8143 79.6031 15.2817 79.6396 17.0059H72.5216C73.1085 14.8782 74.503 13.8143 76.3007 13.8143Z" fill="#5B5F60"></path><path d="M88.7648 23.8342C88.7648 27.7964 90.8563 29.1904 95.0386 29.1904C96.4332 29.1904 97.5339 29.0805 98.5611 28.9337V24.1278C97.9007 24.2011 97.5704 24.2378 96.8735 24.2378C95.406 24.2378 94.5618 23.9443 94.5618 22.3301V14.5159H98.341V9.67322H94.5618V4.31702H88.7648V9.67322H86.3066V14.5159H88.7648V23.8342Z" fill="#5B5F60"></path><path d="M119.56 19.3539C119.56 13.3373 115.561 9.26514 109.874 9.26514C104.15 9.26514 100.188 13.3373 100.188 19.3539C100.188 25.3705 104.15 29.406 109.874 29.406C115.561 29.406 119.56 25.3705 119.56 19.3539ZM106.022 19.3539C106.022 15.9787 107.526 14.0711 109.874 14.0711C112.222 14.0711 113.726 15.9787 113.726 19.3539C113.726 22.7291 112.222 24.6368 109.874 24.6368C107.526 24.6368 106.022 22.7291 106.022 19.3539Z" fill="#5B5F60"></path><path d="M140.699 19.3539C140.699 13.3373 136.7 9.26514 131.013 9.26514C125.289 9.26514 121.327 13.3373 121.327 19.3539C121.327 25.3705 125.289 29.406 131.013 29.406C136.7 29.406 140.699 25.3705 140.699 19.3539ZM127.161 19.3539C127.161 15.9787 128.665 14.0711 131.013 14.0711C133.362 14.0711 134.866 15.9787 134.866 19.3539C134.866 22.7291 133.362 24.6368 131.013 24.6368C128.665 24.6368 127.161 22.7291 127.161 19.3539Z" fill="#5B5F60"></path><path d="M149.333 2.67188H143.462V29.0128H149.333V2.67188Z" fill="#5B5F60"></path></g></svg>