<svg xmlns="http://www.w3.org/2000/svg" width="172" height="48" viewBox="0 0 172 48" fill="none"><g opacity="0.6"><path opacity="0.54" d="M51.2541 36.8305H48.041V12.0161H62.6341V15.0647H51.2541V23.2116H61.5183V26.1899H51.2541V36.8305ZM68.6758 15.5873C67.91 16.3509 66.7072 16.4708 65.8032 15.8738C64.8996 15.2767 64.5466 14.129 64.961 13.1328C65.3748 12.1367 66.4403 11.5697 67.5054 11.7789C68.5704 11.988 69.3382 12.9149 69.3386 13.9925C69.3493 14.5927 69.108 15.1702 68.6734 15.5873H68.6758ZM68.6758 36.8305H65.4628V19.8489H68.6758V36.8305ZM75.727 36.8305H72.514V19.8489H75.5849V22.6214H75.7241C76.0954 21.6444 76.8075 20.8324 77.7319 20.3335C78.6142 19.7713 79.6348 19.4595 80.6829 19.4319C81.5062 19.4087 82.3252 19.5505 83.0915 19.8489L81.8698 22.8272C81.3187 22.6452 80.7395 22.5626 80.1593 22.5835C78.9812 22.5894 77.86 23.0866 77.0691 23.9535C76.1723 24.8668 75.7241 26.0626 75.7241 27.5409L75.727 36.8305ZM91.8967 37.372C89.3126 37.372 87.2125 36.5173 85.5958 34.8079C83.9791 33.0986 83.1698 30.9425 83.1679 28.3397C83.1205 25.9962 83.9617 23.7205 85.5247 21.9635C87.022 20.2146 89.2362 19.233 91.5476 19.2939C94.0843 19.2939 96.1153 20.1142 97.6411 21.755C99.1669 23.3958 99.9288 25.5906 99.9268 28.3397L99.8915 28.9299H86.3756C86.4684 30.6393 87.0452 31.993 88.1054 32.9912C89.0965 33.9571 90.4337 34.4928 91.8232 34.4803C94.1268 34.4803 95.6865 33.5101 96.5011 31.5698L99.3651 32.7475C98.7844 34.0902 97.8272 35.2387 96.6074 36.0561C95.3253 36.9333 93.7551 37.372 91.8967 37.372ZM96.5064 26.2712C96.4373 25.3 95.9891 24.3759 95.1619 23.4987C94.3342 22.6214 93.1043 22.1918 91.4712 22.2099C90.3385 22.1902 89.2381 22.5854 88.3805 23.3199C87.4822 24.1015 86.8533 25.1432 86.583 26.2982L96.5064 26.2712ZM111.536 37.372C110.32 37.3959 109.118 37.1166 108.039 36.5597C107.092 36.0854 106.29 35.3673 105.718 34.4803H105.579V36.8305H102.505V12.0161H105.718V19.8489L105.579 22.2044H105.718C106.29 21.3175 107.092 20.5993 108.039 20.1251C109.116 19.5617 110.319 19.2759 111.536 19.2939C113.747 19.2939 115.657 20.1603 117.264 21.8931C118.872 23.6259 119.675 25.7747 119.673 28.3397C119.673 30.9046 118.87 33.0535 117.264 34.7863C115.658 36.5191 113.749 37.381 111.536 37.372ZM111.012 34.4614C112.476 34.4729 113.875 33.8607 114.853 32.78C115.924 31.6591 116.46 30.1745 116.46 28.3261C116.46 26.4778 115.924 24.9932 114.853 23.8723C113.863 22.8045 112.469 22.1956 111.008 22.1925C109.546 22.1894 108.149 22.7924 107.155 23.856C106.097 24.9643 105.568 26.4543 105.568 28.3261C105.568 30.198 106.102 31.6925 107.171 32.8098C108.156 33.8865 109.558 34.4927 111.023 34.4749L111.012 34.4614ZM127.853 37.372C126.034 37.372 124.516 36.8521 123.298 35.8124C122.079 34.7727 121.468 33.3982 121.465 31.6889C121.465 29.8405 122.187 28.3911 123.631 27.3406C125.074 26.2901 126.855 25.7648 128.971 25.7648C130.857 25.7648 132.403 26.1114 133.608 26.8045V26.3199C133.655 25.1785 133.179 24.0773 132.315 23.3226C131.436 22.5706 130.304 22.1735 129.143 22.2099C128.255 22.1985 127.38 22.4259 126.612 22.8678C125.892 23.2636 125.34 23.9038 125.057 24.671L122.125 23.4228C122.521 22.403 123.301 21.4572 124.465 20.5854C125.629 19.7135 127.166 19.2803 129.075 19.2857C131.257 19.2857 133.075 19.9175 134.53 21.181C135.985 22.4445 136.707 24.2351 136.696 26.5527V36.8305H133.614V34.4749H133.475C132.193 36.4063 130.319 37.372 127.853 37.372ZM128.377 34.4614C129.727 34.4567 131.023 33.9338 131.993 33.002C133.028 32.1365 133.627 30.8631 133.63 29.5202C132.721 28.7801 131.357 28.4101 129.538 28.4101C127.978 28.4101 126.803 28.7449 126.012 29.4146C125.273 29.9778 124.836 30.8459 124.825 31.7701C124.81 32.5743 125.226 33.3263 125.916 33.7466C126.643 34.2316 127.501 34.4856 128.377 34.4749V34.4614ZM146.148 37.372C144.238 37.372 142.661 36.9099 141.418 35.9857C140.207 35.0985 139.265 33.9002 138.69 32.5201L141.554 31.3423C142.463 33.4686 144.009 34.5318 146.191 34.5318C147.058 34.567 147.915 34.3374 148.646 33.8738C149.249 33.5023 149.613 32.8454 149.606 32.1411C149.606 31.0328 148.826 30.2819 147.266 29.8884L143.81 29.0572C142.672 28.7585 141.613 28.2212 140.703 27.4814C139.734 26.7315 139.188 25.5646 139.236 24.3461C139.236 22.8443 139.905 21.6259 141.243 20.691C142.643 19.737 144.311 19.2462 146.008 19.2885C147.426 19.266 148.823 19.6202 150.056 20.3146C151.22 20.9705 152.12 22.0054 152.604 23.2441L149.814 24.3759C149.186 22.8741 147.882 22.1232 145.902 22.1232C145.06 22.0954 144.226 22.2997 143.493 22.7135C142.893 23.0221 142.517 23.6372 142.517 24.3082C142.517 25.2793 143.273 25.9381 144.786 26.2847L148.171 27.0834C149.777 27.4444 150.965 28.0761 151.734 28.9786C152.479 29.8217 152.888 30.9058 152.885 32.0273C152.899 33.5225 152.2 34.9364 151 35.8395C149.743 36.8612 148.126 37.372 146.148 37.372ZM163.43 37.372C160.846 37.372 158.746 36.5173 157.129 34.8079C155.513 33.0986 154.703 30.938 154.701 28.3261C154.654 25.9826 155.495 23.7069 157.058 21.9499C158.561 20.2055 160.778 19.2291 163.089 19.2939C165.635 19.2939 167.666 20.1142 169.183 21.755C170.699 23.3958 171.461 25.5906 171.468 28.3397L171.433 28.9299H157.907C157.999 30.6393 158.576 31.993 159.636 32.9912C160.63 33.9572 161.971 34.491 163.362 34.4749C165.666 34.4749 167.225 33.5047 168.04 31.5643L170.904 32.7421C170.324 34.0849 169.366 35.2334 168.146 36.0507C166.864 36.9315 165.292 37.372 163.43 37.372ZM168.04 26.2712C167.971 25.3 167.523 24.3759 166.695 23.4987C165.868 22.6214 164.639 22.1918 163.01 22.2099C161.877 22.1904 160.777 22.5856 159.92 23.3199C159.021 24.1015 158.392 25.1432 158.122 26.2982L168.04 26.2712Z" fill="black"></path><path d="M30.3907 10.7264C30.3224 10.3242 30.0354 9.99374 29.6467 9.86974C29.258 9.74573 28.8327 9.8489 28.544 10.1372L22.8783 15.8165L18.4237 7.33572C18.2351 6.97714 17.8633 6.75262 17.4581 6.75262C17.0529 6.75262 16.6811 6.97714 16.4924 7.33572L14.0565 11.973L7.94616 0.576206C7.72454 0.162255 7.26299 -0.0635062 6.80018 0.0156913C6.33736 0.0948885 5.97709 0.461283 5.90574 0.925365L0 38.7302L15.7941 47.5847C16.7859 48.1384 17.9939 48.1384 18.9857 47.5847L34.9162 38.7302L30.3907 10.7264Z" fill="url(#paint0_linear_347_284)"></path><mask id="mask0_347_284" style="mask-type:luminance" maskUnits="userSpaceOnUse" x="0" y="0" width="35" height="48"><path d="M30.3907 10.7264C30.3224 10.3242 30.0354 9.99374 29.6467 9.86974C29.258 9.74573 28.8327 9.8489 28.544 10.1372L22.8783 15.8165L18.4237 7.33572C18.2351 6.97714 17.8633 6.75262 17.4581 6.75262C17.0529 6.75262 16.6811 6.97714 16.4924 7.33572L14.0565 11.973L7.94616 0.576206C7.72454 0.162255 7.26299 -0.0635062 6.80018 0.0156913C6.33736 0.0948885 5.97709 0.461283 5.90574 0.925365L0 38.7302L15.7941 47.5847C16.7859 48.1384 17.9939 48.1384 18.9857 47.5847L34.9162 38.7302L30.3907 10.7264Z" fill="white"></path></mask><g mask="url(#mask0_347_284)"><path d="M0 38.7308L5.90849 0.923248C5.98072 0.459571 6.34133 0.0940041 6.80395 0.0154524C7.26661 -0.0630989 7.72768 0.16296 7.94886 0.57682L14.0592 11.9736L16.4952 7.33636C16.6838 6.97778 17.0557 6.75326 17.4608 6.75326C17.866 6.75326 18.2378 6.97778 18.4265 7.33636L34.9162 38.7308H0Z" fill="#242D31"></path><path d="M20.4123 24.0082L14.0565 11.973L0 38.7356L20.4123 24.0082Z" fill="white"></path></g><mask id="mask1_347_284" style="mask-type:luminance" maskUnits="userSpaceOnUse" x="0" y="0" width="35" height="48"><path d="M30.3907 10.7264C30.3224 10.3242 30.0354 9.99374 29.6467 9.86974C29.258 9.74573 28.8327 9.8489 28.544 10.1372L22.8783 15.8165L18.4237 7.33572C18.2351 6.97714 17.8633 6.75262 17.4581 6.75262C17.0529 6.75262 16.6811 6.97714 16.4924 7.33572L14.0565 11.973L7.94616 0.576206C7.72454 0.162255 7.26299 -0.0635062 6.80018 0.0156913C6.33736 0.0948885 5.97709 0.461283 5.90574 0.925365L0 38.7302L15.7941 47.5847C16.7859 48.1384 17.9939 48.1384 18.9857 47.5847L34.9162 38.7302L30.3907 10.7264Z" fill="white"></path></mask><g mask="url(#mask1_347_284)"><path d="M34.9162 38.7334L30.3907 10.7296C30.3224 10.3274 30.0354 9.99695 29.6467 9.87295C29.258 9.74894 28.8327 9.85211 28.544 10.1404L0 38.7334L15.7941 47.5906C16.7859 48.1444 17.9939 48.1444 18.9857 47.5906L34.9162 38.7334Z" fill="#242D31"></path></g><mask id="mask2_347_284" style="mask-type:luminance" maskUnits="userSpaceOnUse" x="0" y="0" width="35" height="48"><path d="M30.3907 10.7264C30.3224 10.3242 30.0354 9.99374 29.6467 9.86974C29.258 9.74573 28.8327 9.8489 28.544 10.1372L22.8783 15.8165L18.4237 7.33572C18.2351 6.97714 17.8633 6.75262 17.4581 6.75262C17.0529 6.75262 16.6811 6.97714 16.4924 7.33572L14.0565 11.973L7.94616 0.576206C7.72454 0.162255 7.26299 -0.0635062 6.80018 0.0156913C6.33736 0.0948885 5.97709 0.461283 5.90574 0.925365L0 38.7302L15.7941 47.5847C16.7859 48.1384 17.9939 48.1384 18.9857 47.5847L34.9162 38.7302L30.3907 10.7264Z" fill="white"></path></mask><g mask="url(#mask2_347_284)"><path d="M30.3952 10.7264C30.3268 10.3242 30.0398 9.99374 29.6511 9.86974C29.2624 9.74573 28.8371 9.8489 28.5484 10.1372L22.8827 15.8165L18.4282 7.33572C18.2395 6.97714 17.8677 6.75262 17.4626 6.75262C17.0574 6.75262 16.6856 6.97714 16.4969 7.33572L14.0609 11.973L7.95059 0.576206C7.72902 0.162255 7.26742 -0.0635062 6.80461 0.0156913C6.34179 0.0948885 5.98152 0.461283 5.91022 0.925365L0.0044461 38.7302H-0.0146484L0.0044461 38.752L0.159932 38.8284L22.8718 16.0893L28.5403 10.4155C28.8287 10.1256 29.2551 10.0213 29.6449 10.1455C30.0345 10.2697 30.322 10.6013 30.3897 11.0046L34.877 38.7575L34.9207 38.7302L30.3952 10.7264ZM0.0562749 38.6784L5.91292 1.19269C5.98428 0.72861 6.3445 0.362215 6.80731 0.283018C7.27013 0.20382 7.73173 0.429582 7.95334 0.843531L14.0637 12.2404L16.4996 7.60307C16.6883 7.24449 17.0601 7.01997 17.4653 7.01997C17.8705 7.01997 18.2423 7.24449 18.4309 7.60307L22.7955 15.9038L0.0562749 38.6784Z" fill="white" fill-opacity="0.2"></path></g><mask id="mask3_347_284" style="mask-type:luminance" maskUnits="userSpaceOnUse" x="0" y="0" width="35" height="48"><path d="M30.3907 10.7264C30.3224 10.3242 30.0354 9.99374 29.6467 9.86974C29.258 9.74573 28.8327 9.8489 28.544 10.1372L22.8783 15.8165L18.4237 7.33572C18.2351 6.97714 17.8633 6.75262 17.4581 6.75262C17.0529 6.75262 16.6811 6.97714 16.4924 7.33572L14.0565 11.973L7.94616 0.576206C7.72454 0.162255 7.26299 -0.0635062 6.80018 0.0156913C6.33736 0.0948885 5.97709 0.461283 5.90574 0.925365L0 38.7302L15.7941 47.5847C16.7859 48.1384 17.9939 48.1384 18.9857 47.5847L34.9162 38.7302L30.3907 10.7264Z" fill="white"></path></mask><g mask="url(#mask3_347_284)"><path opacity="0.2" d="M18.9857 47.3213C17.9939 47.8751 16.7859 47.8751 15.7941 47.3213L0.0381895 38.4887L0 38.7314L15.7941 47.5859C16.7859 48.1397 17.9939 48.1397 18.9857 47.5859L34.9162 38.7314L34.8753 38.4805L18.9857 47.3213Z" fill="#242D31"></path></g><path d="M30.3411 10.7367C30.273 10.3347 29.9869 10.0044 29.5996 9.88046C29.2123 9.7565 28.7884 9.85962 28.5008 10.1478L22.8549 15.8247L18.416 7.34755C18.228 6.98912 17.8574 6.7647 17.4537 6.7647C17.0499 6.7647 16.6794 6.98912 16.4914 7.34755L14.064 11.9828L7.97499 0.590972C7.7542 0.177199 7.29419 -0.0484637 6.83303 0.0306991C6.37181 0.109862 6.01285 0.476096 5.94173 0.939977L0.0566406 38.7283L15.7956 47.5789C16.7838 48.1325 17.9876 48.1325 18.9759 47.5789L34.8507 38.7283L30.3411 10.7367Z" fill="url(#paint1_linear_347_284)"></path></g><defs><linearGradient id="paint0_linear_347_284" x1="-121.934" y1="817.046" x2="4229.45" y2="3119.36" gradientUnits="userSpaceOnUse"><stop stop-color="white" stop-opacity="0.1"></stop><stop offset="0.14" stop-color="white" stop-opacity="0.08"></stop><stop offset="0.61" stop-color="white" stop-opacity="0.02"></stop><stop offset="1" stop-color="white" stop-opacity="0"></stop></linearGradient><linearGradient id="paint1_linear_347_284" x1="-121.451" y1="816.703" x2="4220.53" y2="3107.01" gradientUnits="userSpaceOnUse"><stop stop-color="white" stop-opacity="0.1"></stop><stop offset="0.14" stop-color="white" stop-opacity="0.08"></stop><stop offset="0.61" stop-color="white" stop-opacity="0.02"></stop><stop offset="1" stop-color="white" stop-opacity="0"></stop></linearGradient></defs></svg>