<svg xmlns="http://www.w3.org/2000/svg" width="24" height="24" viewBox="0 0 24 24" fill="none"><path d="M6.23926 17.7603C9.59293 21.114 13.382 23.367 16.6351 23.9417C16.853 23.9806 17.0739 24.0003 17.2952 24.0006C18.2316 24.0006 19.1005 23.6378 19.7911 22.9471L22.0979 20.6404C22.4152 20.3224 22.5933 19.8916 22.5933 19.4425C22.5933 18.9934 22.4152 18.5626 22.0979 18.2446L17.9537 14.1005C17.6358 13.7832 17.205 13.605 16.7558 13.605C16.3067 13.605 15.8759 13.7832 15.558 14.1005L13.4649 16.1935C11.4834 14.7578 9.24179 12.5161 7.80606 10.5347L9.89912 8.44162C10.2164 8.12371 10.3946 7.69291 10.3946 7.24376C10.3946 6.79461 10.2164 6.36381 9.89912 6.04589L5.75495 1.90172C5.43704 1.58446 5.00624 1.40628 4.55711 1.40628C4.10797 1.40628 3.67718 1.58446 3.35926 1.90172L1.05245 4.20848C0.201762 5.05912 -0.151441 6.18 0.0578559 7.36458C0.632403 10.6176 2.88559 14.4067 6.23926 17.7603ZM2.11309 5.26912L4.4199 2.9625C4.45651 2.92655 4.50577 2.90641 4.55708 2.90641C4.60839 2.90641 4.65765 2.92655 4.69426 2.9625L8.83843 7.10667C8.87416 7.14342 8.89414 7.19265 8.89414 7.2439C8.89414 7.29515 8.87416 7.34438 8.83843 7.38113L6.63531 9.58425C6.41465 9.80389 6.27923 10.0948 6.25322 10.4051C6.22721 10.7153 6.31231 11.0247 6.49332 11.278C8.06584 13.4891 10.5105 15.9338 12.7216 17.5062C12.9749 17.6873 13.2843 17.7724 13.5946 17.7465C13.9048 17.7205 14.1958 17.585 14.4154 17.3643L16.6186 15.1612C16.6552 15.1252 16.7045 15.1051 16.7558 15.1051C16.8071 15.1051 16.8564 15.1252 16.8931 15.1612L21.0372 19.3054C21.0732 19.3421 21.0933 19.3913 21.0933 19.4426C21.0933 19.4939 21.0732 19.5432 21.0372 19.5798L18.7304 21.8866C18.2288 22.3882 17.5942 22.588 16.8959 22.4647C13.9824 21.9499 10.395 19.7948 7.2999 16.6997C4.20479 13.6046 2.04972 10.0172 1.53498 7.10363C1.41156 6.40514 1.61148 5.77073 2.11309 5.26912ZM23.9996 9.93844C23.9996 10.1374 23.9206 10.3281 23.7799 10.4688C23.6393 10.6094 23.4485 10.6884 23.2496 10.6884C23.0507 10.6884 22.8599 10.6094 22.7193 10.4688C22.5786 10.3281 22.4996 10.1374 22.4996 9.93844C22.4996 5.28544 18.7141 1.5 14.0612 1.5C13.8622 1.5 13.6715 1.42098 13.5308 1.28033C13.3902 1.13968 13.3112 0.948912 13.3112 0.75C13.3112 0.551088 13.3902 0.360322 13.5308 0.21967C13.6715 0.0790176 13.8622 0 14.0612 0C19.5413 0 23.9996 4.45838 23.9996 9.93844ZM14.0612 5.80205C13.8622 5.80205 13.6715 5.72303 13.5308 5.58238C13.3902 5.44172 13.3112 5.25096 13.3112 5.05205C13.3112 4.85313 13.3902 4.66237 13.5308 4.52172C13.6715 4.38106 13.8622 4.30205 14.0612 4.30205C15.5555 4.30373 16.9882 4.89811 18.0448 5.95477C19.1015 7.01143 19.6959 8.44409 19.6975 9.93844C19.6975 10.1374 19.6185 10.3281 19.4779 10.4688C19.3372 10.6094 19.1465 10.6884 18.9475 10.6884C18.7486 10.6884 18.5579 10.6094 18.4172 10.4688C18.2766 10.3281 18.1975 10.1374 18.1975 9.93844C18.1963 8.84178 17.7601 7.79038 16.9847 7.01492C16.2092 6.23947 15.1578 5.80328 14.0612 5.80205ZM12.4754 8.59509C12.4754 8.39618 12.5544 8.20542 12.695 8.06476C12.8357 7.92411 13.0265 7.84509 13.2254 7.84509C14.0309 7.846 14.8033 8.16642 15.3729 8.73605C15.9425 9.30568 16.263 10.078 16.2639 10.8836C16.2639 11.0825 16.1848 11.2733 16.0442 11.4139C15.9035 11.5546 15.7128 11.6336 15.5139 11.6336C15.3149 11.6336 15.1242 11.5546 14.9835 11.4139C14.8429 11.2733 14.7639 11.0825 14.7639 10.8836C14.7634 10.4757 14.6012 10.0846 14.3127 9.79621C14.0243 9.50779 13.6333 9.34555 13.2254 9.34509C13.0265 9.34509 12.8357 9.26608 12.695 9.12542C12.5544 8.98477 12.4754 8.79401 12.4754 8.59509Z" fill="white"></path></svg>